<svg width="24" height="24" viewBox="0 0 24 24" fill="none" xmlns="http://www.w3.org/2000/svg">
<rect width="24" height="24" rx="12" fill="#F47073"/>
<path d="M15.6562 18H8.01562V16.7109L11.7188 12.6719C12.0312 12.3229 12.2917 12.0156 12.5 11.75C12.7135 11.4792 12.8828 11.2318 13.0078 11.0078C13.1328 10.7839 13.2214 10.5755 13.2734 10.3828C13.3255 10.1901 13.3516 9.99479 13.3516 9.79688C13.3516 9.53646 13.3099 9.29688 13.2266 9.07812C13.1484 8.85417 13.0339 8.66406 12.8828 8.50781C12.737 8.34635 12.5573 8.22135 12.3438 8.13281C12.1354 8.04427 11.901 8 11.6406 8C10.9635 8 10.4635 8.1849 10.1406 8.55469C9.82292 8.92448 9.66406 9.4349 9.66406 10.0859H7.78906C7.78906 9.59115 7.8776 9.125 8.05469 8.6875C8.23698 8.24479 8.49479 7.85938 8.82812 7.53125C9.16667 7.20312 9.57552 6.94531 10.0547 6.75781C10.5339 6.5651 11.0729 6.46875 11.6719 6.46875C12.2344 6.46875 12.7344 6.54948 13.1719 6.71094C13.6094 6.8724 13.9792 7.09896 14.2812 7.39062C14.5833 7.67708 14.8125 8.01823 14.9688 8.41406C15.125 8.8099 15.2031 9.24479 15.2031 9.71875C15.2031 10.0729 15.1458 10.4167 15.0312 10.75C14.9167 11.0781 14.7578 11.4062 14.5547 11.7344C14.3516 12.0625 14.1094 12.3932 13.8281 12.7266C13.5469 13.0547 13.2422 13.3932 12.9141 13.7422L10.3359 16.5078H15.6562V18Z" fill="white"/>
</svg>
