<svg width="142" height="39" viewBox="0 0 142 39" fill="none" xmlns="http://www.w3.org/2000/svg">
<g clip-path="url(#clip0_103_3878)">
<path fill-rule="evenodd" clip-rule="evenodd" d="M33.7734 1.06548L23.0335 11.8197H5.56974C5.10927 11.8197 4.57405 12.1561 4.37476 12.5701L0.1023 21.4462C-0.0972027 21.8607 0.00376404 22.4598 0.329681 22.7863L10.4761 32.9509L12.2099 34.6865L13.474 35.9538L15.891 38.3747C16.2159 38.7002 16.742 38.7009 17.0673 38.3749L30.4875 24.9283C30.8123 24.6029 31.0755 23.9659 31.0755 23.5045V17.749L32.2329 16.5642C32.554 16.2355 32.8143 15.5958 32.8143 15.1356V10.5401L33.7734 9.61806L34.9751 8.4134C35.3002 8.08746 35.5638 7.45034 35.5638 6.99174V0.93942C35.5638 0.0191464 35.0363 -0.198808 34.3871 0.451161L33.7734 1.06548ZM11.682 31.6835L27.9565 15.4813L31.0229 12.3913V15.8549L29.861 17.03L29.2886 17.6101L29.0863 17.8166L13.4163 33.414L11.682 31.6835ZM16.4526 36.4413L14.7093 34.7057L29.3287 20.1425L29.3411 20.1277V23.599L16.4526 36.4413ZM33.882 7.10684L29.3883 11.5936L28.588 12.3906L27.2436 13.7337L10.5564 30.3868L8.82289 28.6575L23.8702 13.6402L33.882 3.64585V7.10684Z" fill="#EC1115"/>
<path d="M53.229 15.3429C55.5908 15.3429 57.1216 16.88 57.1216 19.7541V27.5831C57.1216 27.9642 56.9091 28.1766 56.528 28.1766H54.4911C54.11 28.1766 53.8975 27.9642 53.8975 27.5831V19.9978C53.8975 18.7544 53.1602 18.3295 52.3042 18.3295C51.4295 18.3295 50.4548 18.8106 50.4548 20.4414V27.5831C50.4548 27.9642 50.2424 28.1766 49.8612 28.1766H47.8243C47.4432 28.1766 47.2307 27.9642 47.2307 27.5831V19.9978C47.2307 18.7544 46.4935 18.3295 45.6375 18.3295C44.7627 18.3295 43.788 18.8106 43.788 20.4414V27.5831C43.788 27.9642 43.5756 28.1766 43.1944 28.1766H41.1575C40.7764 28.1766 40.564 27.9642 40.564 27.5831V16.2739C40.564 15.8928 40.7764 15.6803 41.1575 15.6803H43.1944C43.5756 15.6803 43.788 15.8928 43.788 16.2739V16.8997C44.4646 15.8858 45.5232 15.3429 46.7809 15.3429C48.0797 15.3429 49.1537 15.9075 49.7982 16.9922C50.6435 15.9188 51.7682 15.3429 53.229 15.3429ZM65.6878 28.514C62.0201 28.514 59.0772 25.6461 59.0772 21.9285C59.0772 18.2108 62.0201 15.3429 65.6878 15.3429C69.3555 15.3429 72.2983 18.2108 72.2983 21.9285C72.2983 25.6461 69.3555 28.514 65.6878 28.514ZM65.6878 25.3775C67.5997 25.3775 69.0743 23.9529 69.0743 21.9285C69.0743 19.9041 67.5997 18.4795 65.6878 18.4795C63.7759 18.4795 62.3013 19.9041 62.3013 21.9285C62.3013 23.9529 63.7759 25.3775 65.6878 25.3775ZM81.202 15.3429H81.2017C83.526 15.3429 85.263 17.1299 85.263 20.1915V27.5831C85.263 27.9642 85.0506 28.1766 84.6694 28.1766H82.6325C82.2514 28.1766 82.039 27.9642 82.039 27.5831V20.4352C82.039 19.0043 81.1892 18.3295 80.0583 18.3295C78.7899 18.3295 77.8027 19.0606 77.8027 20.9413V27.5831C77.8027 27.9642 77.5903 28.1766 77.2091 28.1766H75.1722C74.7911 28.1766 74.5787 27.9642 74.5787 27.5831V16.2739C74.5787 15.8928 74.7911 15.6803 75.1722 15.6803H77.2091C77.5903 15.6803 77.8027 15.8928 77.8027 16.2739V16.9647C78.5025 15.9078 79.6482 15.3429 81.202 15.3429ZM93.7482 15.6803C94.1294 15.6803 94.3418 15.8928 94.3418 16.2739V18.1858C94.3418 18.567 94.1294 18.7794 93.7482 18.7794H92.1925V27.5831C92.1925 27.9642 91.98 28.1766 91.5989 28.1766H89.562C89.1808 28.1766 88.9684 27.9642 88.9684 27.5831V18.7794H87.4064C87.0252 18.7794 86.8128 18.567 86.8128 18.1858V16.2739C86.8128 15.8928 87.0252 15.6803 87.4064 15.6803H88.9684V12.2751C88.9684 11.8939 89.1808 11.6815 89.562 11.6815H91.5989C91.98 11.6815 92.1925 11.8939 92.1925 12.2751V15.6803H93.7482ZM102.19 15.3429C105.882 15.3429 108.431 18.2546 108.431 21.941C108.431 22.2096 108.413 22.4596 108.394 22.7095C108.35 23.0906 108.113 23.2593 107.757 23.2593H98.9217C99.3598 25.0351 100.709 25.8461 102.308 25.8461C103.252 25.8461 104.095 25.4712 104.589 24.9338C104.814 24.7276 105.007 24.6027 105.32 24.6027L107.319 24.5839C107.75 24.5839 107.988 24.8589 107.807 25.2337C106.863 27.3394 104.814 28.514 102.264 28.514C98.1969 28.514 95.5665 25.6649 95.5665 21.9285C95.5665 18.2171 98.2594 15.3429 102.19 15.3429ZM98.9082 20.7226H105.21C104.837 18.9366 103.523 18.2358 102.171 18.2358C100.461 18.2358 99.2914 19.1575 98.9082 20.7226ZM116.654 15.4866C117.054 15.4241 117.266 15.6741 117.266 16.0552V18.417C117.266 18.7919 117.104 18.9918 116.81 18.9918C115.292 18.9856 113.842 19.7854 113.842 22.016V27.5831C113.842 27.9642 113.63 28.1766 113.249 28.1766H111.212C110.831 28.1766 110.618 27.9642 110.618 27.5831V16.2739C110.618 15.8928 110.831 15.6803 111.212 15.6803H113.249C113.63 15.6803 113.842 15.8928 113.842 16.2739V17.5675C114.381 16.2931 115.414 15.6441 116.654 15.4866ZM124.046 15.3429V15.3432C126.807 15.3432 129.132 16.9864 129.132 20.2417V27.5833C129.132 27.9644 128.919 28.1769 128.538 28.1769H126.576C126.195 28.1769 125.982 27.9644 125.982 27.5833V27.0944C125.263 27.9712 124.181 28.514 122.596 28.514C120.372 28.514 118.385 27.2082 118.385 24.5839C118.385 21.9597 120.372 20.6539 122.596 20.6539C124.181 20.6539 125.263 21.128 125.982 21.7603V20.4289C125.982 18.9481 125.233 18.3295 124.046 18.3295C123.102 18.3295 122.409 18.7232 122.196 19.398C122.065 19.7354 121.934 19.9291 121.578 19.9291H119.578C119.197 19.9291 118.96 19.7166 118.985 19.3105C119.297 16.755 121.484 15.3429 124.046 15.3429ZM123.689 26.14C125.108 26.14 125.982 25.4839 125.982 24.5842C125.982 23.622 125.108 23.0284 123.689 23.0284C122.271 23.0284 121.609 23.6845 121.609 24.5842C121.609 25.4839 122.271 26.14 123.689 26.14ZM132.356 13.9308C131.974 13.9308 131.762 13.7184 131.762 13.3373V11.2754C131.762 10.8942 131.974 10.6818 132.356 10.6818H134.392C134.774 10.6818 134.986 10.8942 134.986 11.2754V13.3373C134.986 13.7184 134.774 13.9308 134.392 13.9308H132.356ZM132.356 28.1766C131.974 28.1766 131.762 27.9642 131.762 27.5831V16.2739C131.762 15.8928 131.974 15.6803 132.356 15.6803H134.392C134.774 15.6803 134.986 15.8928 134.986 16.2739V27.5831C134.986 27.9642 134.774 28.1766 134.392 28.1766H132.356ZM138.529 28.1766C138.148 28.1766 137.935 27.9642 137.935 27.5831V10.7755C137.935 10.3944 138.148 10.1819 138.529 10.1819H140.566C140.947 10.1819 141.159 10.3944 141.159 10.7755V27.5831C141.159 27.9642 140.947 28.1766 140.566 28.1766H138.529Z" fill="#343541"/>
</g>
<defs>
<clipPath id="clip0_103_3878">
<rect width="141.159" height="38.5422" fill="white" transform="translate(0 0.0769043)"/>
</clipPath>
</defs>
</svg>
