<svg width="32" height="32" viewBox="0 0 32 32" fill="none" xmlns="http://www.w3.org/2000/svg">
<path d="M6.78296 25L25.533 7" stroke="#5D5D67" stroke-width="1.5" stroke-linecap="round" stroke-linejoin="round"/>
<path d="M12.9641 23.051C13.9469 23.3562 14.971 23.5077 16.0001 23.5C20.1001 23.569 24.2581 20.687 26.8241 17.863C27.0992 17.5576 27.2515 17.1611 27.2515 16.75C27.2515 16.3389 27.0992 15.9424 26.8241 15.637C25.8945 14.6172 24.8647 13.6936 23.7501 12.88" stroke="#5D5D67" stroke-width="1.5" stroke-linecap="round" stroke-linejoin="round"/>
<path d="M18.4131 10.282C17.624 10.0857 16.8131 9.99089 16.0001 10C11.9691 9.93301 7.80007 12.752 5.17907 15.635C4.90396 15.9404 4.75171 16.3369 4.75171 16.748C4.75171 17.1591 4.90396 17.5556 5.17907 17.861C5.976 18.7334 6.84581 19.5363 7.77907 20.261" stroke="#5D5D67" stroke-width="1.5" stroke-linecap="round" stroke-linejoin="round"/>
<path d="M12.25 16.75C12.2499 16.2575 12.3468 15.7698 12.5352 15.3148C12.7236 14.8598 12.9998 14.4463 13.3481 14.0981C13.6963 13.7498 14.1098 13.4736 14.5648 13.2852C15.0198 13.0968 15.5075 12.9999 16 13" stroke="#5D5D67" stroke-width="1.5" stroke-linecap="round" stroke-linejoin="round"/>
<path d="M19.75 16.749C19.7501 17.2416 19.6532 17.7293 19.4648 18.1844C19.2764 18.6395 19.0002 19.053 18.652 19.4013C18.3038 19.7496 17.8903 20.026 17.4353 20.2145C16.9803 20.403 16.4925 20.5 16 20.5" stroke="#5D5D67" stroke-width="1.5" stroke-linecap="round" stroke-linejoin="round"/>
</svg>
