<svg width="33" height="32" viewBox="0 0 33 32" fill="none" xmlns="http://www.w3.org/2000/svg">
<path d="M16.5003 9.25102C12.4693 9.18302 8.30032 12 5.67932 14.885C5.4042 15.1905 5.25195 15.587 5.25195 15.998C5.25195 16.4091 5.4042 16.8056 5.67932 17.111C8.24332 19.935 12.4003 22.817 16.5003 22.748C20.6003 22.817 24.7583 19.935 27.3243 17.111C27.5994 16.8056 27.7517 16.4091 27.7517 15.998C27.7517 15.587 27.5994 15.1905 27.3243 14.885C24.7003 12 20.5313 9.18302 16.5003 9.25102Z" stroke="#5D5D67" stroke-width="1.5" stroke-linecap="round" stroke-linejoin="round"/>
<path d="M20.25 16C20.2498 16.7417 20.0297 17.4666 19.6175 18.0831C19.2054 18.6997 18.6196 19.1802 17.9344 19.4639C17.2491 19.7475 16.4952 19.8217 15.7678 19.6768C15.0404 19.532 14.3723 19.1748 13.848 18.6503C13.3237 18.1258 12.9666 17.4576 12.822 16.7302C12.6774 16.0028 12.7517 15.2489 13.0355 14.5637C13.3194 13.8786 13.8001 13.293 14.4167 12.8809C15.0334 12.4689 15.7584 12.249 16.5 12.249C16.9926 12.2489 17.4804 12.3458 17.9355 12.5343C18.3905 12.7228 18.804 12.9991 19.1523 13.3474C19.5006 13.6958 19.7768 14.1094 19.9651 14.5645C20.1535 15.0196 20.2503 15.5074 20.25 16Z" stroke="#5D5D67" stroke-width="1.5" stroke-linecap="round" stroke-linejoin="round"/>
</svg>
