<svg width="32" height="32" viewBox="0 0 32 32" fill="none" xmlns="http://www.w3.org/2000/svg">
<path d="M19.04 26.3901L19.052 26.3971C20.1141 27.0733 21.3751 27.3671 22.6267 27.2298C23.8783 27.0925 25.0456 26.5325 25.936 25.6421L26.71 24.8681C27.0557 24.522 27.2498 24.0528 27.2498 23.5636C27.2498 23.0744 27.0557 22.6052 26.71 22.2591L23.449 19.0001C23.1028 18.6544 22.6336 18.4603 22.1445 18.4603C21.6553 18.4603 21.1861 18.6544 20.84 19.0001V19.0001C20.6688 19.1715 20.4655 19.3075 20.2418 19.4002C20.018 19.493 19.7782 19.5407 19.536 19.5407C19.2937 19.5407 19.0539 19.493 18.8302 19.4002C18.6064 19.3075 18.4031 19.1715 18.232 19.0001L13.014 13.7811C12.6683 13.435 12.4741 12.9658 12.4741 12.4766C12.4741 11.9874 12.6683 11.5182 13.014 11.1721V11.1721C13.1853 11.0009 13.3213 10.7977 13.4141 10.5739C13.5068 10.3502 13.5546 10.1103 13.5546 9.86812C13.5546 9.6259 13.5068 9.38606 13.4141 9.16231C13.3213 8.93856 13.1853 8.73528 13.014 8.56412L9.75396 5.30012C9.40783 4.95442 8.93865 4.76025 8.44946 4.76025C7.96027 4.76025 7.49109 4.95442 7.14496 5.30012L6.37096 6.07412C5.48079 6.9645 4.92077 8.13176 4.78333 9.38328C4.64589 10.6348 4.93924 11.8958 5.61496 12.9581L5.62296 12.9701C9.19637 18.2599 13.7509 22.8155 19.04 26.3901V26.3901Z" stroke="#EC1115" stroke-width="1.5" stroke-linecap="round" stroke-linejoin="round"/>
</svg>
